# xmcd
#
# Track frame offsets:
#	150
#	18549
#	41677
#	59851
#	81562
#	101516
#	117770
#	133070
#	146100
#	164381
#	182936
#	200542
#	219077
#	237354
#	257478
#	273603
#	292688
#
# Disc length: 4205 seconds
#
# Revision: 1
# Processed by: cddbd v1.5.2PL0 Copyright (c) Steve Scherf et al.
# Submitted via: audiograbber 1.83.01
#
DISCID=06106b11
DTITLE=Quick Hitz - QH1000
DYEAR=2009
DGENRE=Country
TTITLE0=Taylor Swift - Love Story
TTITLE1=Taylor Swift - Fifteen
TTITLE2=Taylor Swift - Forever and Always
TTITLE3=Taylor Swift - Change
TTITLE4=Taylor Swift - Hey Stephen
TTITLE5=Taylor Swift - Mary's Song
TTITLE6=Taylor Swift - Our Song
TTITLE7=Taylor Swift - Picture To Burn
TTITLE8=Taylor Swift - Should've Said No
TTITLE9=Taylor Swift - Stay Beautiful
TTITLE10=Taylor Swift - Tim McGraw
TTITLE11=Taylor Swift - White Horse
TTITLE12=Taylor Swift - You Belong With Me
TTITLE13=Taylor Swift - You're Not Sorry
TTITLE14=Taylor Swift - Teardrops On My Guitar
TTITLE15=Taylor Swift - Fearless
TTITLE16=Taylor Swift - Umbrella - Irreplaceable (Live Soho Version)
EXTD=
EXTT0=
EXTT1=
EXTT2=
EXTT3=
EXTT4=
EXTT5=
EXTT6=
EXTT7=
EXTT8=
EXTT9=
EXTT10=
EXTT11=
EXTT12=
EXTT13=
EXTT14=
EXTT15=
EXTT16=
PLAYORDER=
